<svg id="Capa_1" enable-background="new 0 0 512 512" height="512" viewBox="0 0 512 512" width="512" xmlns="http://www.w3.org/2000/svg"><g><g><path d="m474.713 407.184h-437.427c-16.569 0-30-13.431-30-30v-274.291c0-16.569 13.431-30 30-30h437.427c16.569 0 30 13.431 30 30v274.291c0 16.569-13.431 30-30 30z" fill="#75cef9"/></g><g><path d="m474.713 72.893h-2.257v290.717c0 6.25-5.067 11.317-11.317 11.317h-453.853v2.257c0 16.569 13.431 30 30 30h437.427c16.569 0 30-13.431 30-30v-274.291c0-16.568-13.431-30-30-30z" fill="#5ea5ec"/></g><g><path d="m346.234 486.121-5.4-5.018c-12.734-11.834-19.969-28.434-19.969-45.819v-54.332h-129.729v54.332c0 17.384-7.235 33.984-19.969 45.819l-5.4 5.018z" fill="#d5c6e4"/></g><g><path d="m286.654 380.953v54.578c0 19.029 7.615 37.221 21.064 50.591h38.516l-5.4-5.018c-12.734-11.834-19.969-28.434-19.969-45.819v-54.332z" fill="#beb9dd"/></g><g><path d="m7.286 342.698v34.486c0 16.569 13.431 30 30 30h437.427c16.569 0 30-13.431 30-30v-34.486z" fill="#efecef"/></g><g><path d="m472.457 342.698v20.912c0 6.25-5.067 11.317-11.317 11.317h-453.854v2.257c0 16.569 13.431 30 30 30h437.427c16.569 0 30-13.431 30-30v-34.486z" fill="#dddaec"/></g><g><path d="m403.846 223.397h-16.105c-1.656 0-3.135-1.108-3.527-2.717-3.012-12.381-12.842-22.09-25.289-24.932-1.571-.359-2.737-1.653-2.891-3.257-2.292-23.935-22.445-42.655-46.98-42.655-6.736 0-13.14 1.414-18.936 3.957-1.976.867-4.293-.136-4.936-2.196-7.629-24.443-30.427-42.19-57.383-42.19-33.204 0-60.122 26.917-60.122 60.122v15.71c0 2.015-1.633 3.648-3.648 3.648-17.312 0-31.638 12.786-34.05 29.43-.005.034-.01.068-.015.104-.385 2.837-2.781 4.975-5.644 4.975-21.598 0-39.107 17.509-39.107 39.107 0 21.598 17.509 39.107 39.107 39.107h279.526c21.598 0 39.107-17.509 39.107-39.107 0-21.597-17.509-39.106-39.107-39.106z" fill="#efecef"/></g><g><path d="m252.325 58.888-29.004-32.04c-1.79-1.977-5.075-.711-5.075 1.956v178.365h75.361v-178.365c0-2.667-3.285-3.933-5.075-1.956l-29.004 32.04c-1.929 2.13-5.275 2.13-7.203 0z" fill="#f4dd45"/></g><g><path d="m288.531 26.848-21.129 23.341v156.981h26.204v-178.366c0-2.667-3.285-3.934-5.075-1.956z" fill="#ecc32e"/></g><g><path d="m260.374 267.533 56.498-62.412c1.746-1.929.377-5.013-2.224-5.013h-117.444c-2.601 0-3.97 3.085-2.224 5.013l56.498 62.412c2.382 2.631 6.514 2.631 8.896 0z" fill="#f4dd45"/></g><g><path d="m314.84 200.107h-31.847l-46.276 51.12 14.887 16.445c2.314 2.556 6.329 2.556 8.643 0l56.754-62.695c1.696-1.873.367-4.87-2.161-4.87z" fill="#ecc32e"/></g><g><path d="m464.583 109.375h-30.57c-2.761 0-5 2.239-5 5v30.57c0 2.761 2.239 5 5 5h30.57c2.761 0 5-2.239 5-5v-30.57c0-2.761-2.238-5-5-5z" fill="#efecef"/></g><g><path d="m400.459 109.375h-30.57c-2.761 0-5 2.239-5 5v30.57c0 2.761 2.239 5 5 5h30.57c2.761 0 5-2.239 5-5v-30.57c0-2.761-2.238-5-5-5z" fill="#ecb780"/></g><path d="m464.583 109.375h-7.408v23.162c0 2.761-2.239 5-5 5h-23.162v7.408c0 2.761 2.239 5 5 5h30.57c2.761 0 5-2.239 5-5v-30.57c0-2.761-2.238-5-5-5z" fill="#dddaec"/><path d="m400.459 109.375h-7.408v23.162c0 2.761-2.239 5-5 5h-23.162v7.408c0 2.761 2.239 5 5 5h30.57c2.761 0 5-2.239 5-5v-30.57c0-2.761-2.238-5-5-5z" fill="#e7a561"/><g><circle cx="124.379" cy="129.66" fill="#78d0b1" r="20.285"/></g><path d="m130.662 110.379c.645 1.98 1.004 4.088 1.004 6.283 0 11.203-9.082 20.285-20.285 20.285-2.195 0-4.303-.359-6.283-1.004 2.646 8.125 10.273 14.002 19.281 14.002 11.203 0 20.285-9.082 20.285-20.285 0-9.008-5.877-16.635-14.002-19.281z" fill="#66b49d"/><g><path d="m82.009 126.125-21.616-21.616c-1.953-1.953-5.118-1.953-7.071 0l-21.616 21.616c-1.953 1.953-1.953 5.118 0 7.071l21.616 21.616c1.953 1.953 5.118 1.953 7.071 0l21.616-21.616c1.953-1.953 1.953-5.119 0-7.071z" fill="#d5c6e4"/></g><path d="m82.009 126.125-21.616-21.616c-1.953-1.953-5.118-1.953-7.071 0l-4.652 4.652 16.964 16.964c1.953 1.953 1.953 5.118 0 7.071l-16.964 16.964 4.652 4.652c1.953 1.953 5.118 1.953 7.071 0l21.616-21.616c1.953-1.953 1.953-5.119 0-7.071z" fill="#beb9dd"/><g><g><path d="m419.913 226.852c2.213 4.903 3.455 10.339 3.455 16.067 0 21.598-17.509 39.107-39.107 39.107h-279.526c-5.729 0-11.164-1.242-16.067-3.455 6.131 13.582 19.782 23.04 35.652 23.04h279.526c21.598 0 39.107-17.509 39.107-39.107 0-15.87-9.458-29.521-23.04-35.652z" fill="#dddaec"/></g></g><g><path d="m182.902 257.606h-2.668c-1.402 0-2.597-1-2.856-2.378-3.41-18.12-19.308-31.832-38.419-31.832h-14.64c-21.598 0-39.107 17.509-39.107 39.107 0 21.598 17.509 39.107 39.107 39.107h58.583c12.152 0 22.003-9.851 22.003-22.003 0-12.15-9.851-22.001-22.003-22.001z" fill="#dddaec"/></g><g><path d="m104.735 282.027c-5.729 0-11.164-1.242-16.067-3.455 6.131 13.582 19.782 23.04 35.652 23.04h58.583c11.334 0 20.663-8.571 21.868-19.585z" fill="#d5c6e4"/></g><g><path d="m7.287 276.142c4.024 0 7.287-3.262 7.287-7.287v-166.816c0-12.054 9.806-21.86 21.86-21.86h174.527v24.079c-29.537 7.589-50.569 34.388-50.569 65.27v12.232c-18.612 1.647-34.207 15.796-37.441 34.383-24.949.729-45.024 21.237-45.024 46.359 0 25.582 20.812 46.394 46.394 46.394h279.526c25.582 0 46.394-20.812 46.394-46.394s-20.812-46.394-46.394-46.394h-13.357c-4.145-12.831-14.556-22.999-27.499-26.826-3.797-26.815-26.555-46.734-53.935-46.734-2.743 0-5.469.208-8.161.614v-114.358c0-4.253-2.564-7.989-6.533-9.519-3.966-1.528-8.377-.48-11.231 2.673l-27.203 30.051-27.203-30.051c-2.855-3.153-7.263-4.202-11.231-2.673-3.969 1.529-6.533 5.266-6.533 9.519v36.803h-174.528c-20.09 0-36.433 16.343-36.433 36.432v166.816c0 4.025 3.262 7.287 7.287 7.287zm297.699-68.748-49.06 54.196-49.06-54.196zm-180.666 86.93c-17.546 0-31.821-14.275-31.821-31.821s14.275-31.821 31.821-31.821h14.639c15.289 0 28.435 10.889 31.258 25.894.908 4.818 5.12 8.315 10.017 8.315h2.668c8.115 0 14.716 6.602 14.716 14.716s-6.602 14.716-14.716 14.716h-58.582zm184.734-137.201c20.679 0 37.758 15.504 39.727 36.063.453 4.722 3.878 8.606 8.522 9.666 9.695 2.213 17.48 9.888 19.831 19.55 1.186 4.876 5.547 8.281 10.607 8.281h16.105c17.546 0 31.821 14.275 31.821 31.821s-14.275 31.821-31.821 31.821h-195.636c2.526-4.328 3.981-9.354 3.981-14.716 0-15.874-12.695-28.84-28.465-29.278-5.488-20.401-24.433-34.708-45.85-34.221 3.184-11.567 13.891-19.935 26.152-19.935 6.029 0 10.935-4.905 10.935-10.935v-15.711c0-22.924 14.774-42.986 35.996-50.099v73.391h-13.948c-4.03 0-7.69 2.38-9.324 6.064s-.943 7.995 1.762 10.983l56.754 62.695c2.482 2.741 6.026 4.313 9.723 4.313s7.241-1.572 9.723-4.313l56.754-62.695c2.704-2.988 3.396-7.299 1.761-10.983s-5.295-6.064-9.324-6.064h-13.948v-34.847c2.673-.556 5.404-.851 8.162-.851zm-62.132-93.345c2.298 2.538 5.58 3.994 9.004 3.994s6.706-1.456 9.003-3.994l21.39-23.63v152.673h-60.787v-152.673z"/><path d="m475.567 65.607h-147.99c-4.024 0-7.287 3.262-7.287 7.287s3.262 7.287 7.287 7.287h147.991c12.054 0 21.86 9.806 21.86 21.86v233.372h-177.579c-4.024 0-7.287 3.262-7.287 7.287 0 4.024 3.262 7.287 7.287 7.287h177.578v28.053c0 12.054-9.806 21.86-21.86 21.86h-439.134c-12.054 0-21.86-9.806-21.86-21.86v-28.053h271.529c4.024 0 7.287-3.262 7.287-7.287 0-4.024-3.262-7.287-7.287-7.287h-271.529v-31.858c0-4.024-3.262-7.287-7.287-7.287s-7.286 3.262-7.286 7.286v74.484c0 20.089 16.343 36.433 36.433 36.433h147.417v20.814c.123 16.934-8.033 32.797-20.946 43.551h-9.671c-4.024 0-7.287 3.262-7.287 7.287s3.262 7.287 7.287 7.287h205.536c4.024 0 7.287-3.262 7.287-7.287s-3.262-7.287-7.287-7.287h-9.671c-12.914-10.754-21.068-26.618-20.946-43.551v-20.814h147.417c20.089 0 36.433-16.343 36.433-36.433v-275.999c-.002-20.089-16.345-36.432-36.435-36.432zm-146.725 413.228h-145.684c9.787-12.29 15.264-27.683 15.264-43.551v-20.814h115.156v20.814c0 15.868 5.477 31.261 15.264 43.551z"/><circle cx="255.926" cy="374.698" r="11.476"/><path d="m464.725 157.232c6.696 0 12.144-5.448 12.144-12.144v-30.855c0-6.696-5.448-12.144-12.144-12.144h-30.854c-6.696 0-12.144 5.448-12.144 12.144v30.855c0 6.696 5.448 12.144 12.144 12.144zm-28.425-40.57h25.997v25.997h-25.997z"/><path d="m400.602 157.232c6.696 0 12.144-5.448 12.144-12.144v-30.855c0-6.696-5.448-12.144-12.144-12.144h-30.854c-6.696 0-12.144 5.448-12.144 12.144v30.855c0 6.696 5.448 12.144 12.144 12.144zm-28.426-40.57h25.997v25.997h-25.997z"/><path d="m151.951 129.66c0-15.203-12.369-27.572-27.572-27.572s-27.572 12.369-27.572 27.572 12.369 27.572 27.572 27.572 27.572-12.369 27.572-27.572zm-40.571 0c0-7.167 5.831-12.999 12.999-12.999s12.999 5.831 12.999 12.999c0 7.167-5.831 12.999-12.999 12.999s-12.999-5.831-12.999-12.999z"/><path d="m87.262 121.073-21.818-21.817c-4.735-4.735-12.439-4.735-17.175 0l-21.817 21.817c-4.735 4.735-4.735 12.44 0 17.175l21.817 21.817c2.368 2.368 5.477 3.551 8.587 3.551s6.22-1.184 8.587-3.551l21.817-21.817c4.737-4.735 4.737-12.44.002-17.175zm-30.405 26.97-18.383-18.383 18.383-18.383 18.383 18.383z"/></g></g></svg>